<svg width="96" height="96" viewBox="0 0 488 488" fill="none" xmlns="http://www.w3.org/2000/svg">
<g filter="url(#filter0_d_4_4)">
<path d="M193.687 336.312V436.616L290.843 480H4L99.6145 428.633L126.602 71.8438L11.3253 8.67679C24.6908 6.82574 38.3133 5.32176 52.1928 4.16486C66.3293 3.00795 80.2088 2.19812 93.8313 1.73536C107.711 1.04121 121.076 0.578453 133.928 0.347072C147.036 0.115691 159.245 0 170.554 0C196.257 0 221.831 0.809834 247.277 2.4295C272.723 4.04917 297.012 7.17281 320.145 11.8004C343.534 16.1967 365.124 22.3283 384.916 30.1952C404.964 38.0622 422.313 48.243 436.964 60.7375C451.614 73.0007 463.052 87.9248 471.277 105.51C479.759 123.095 484 143.688 484 167.289C484 188.807 480.145 207.896 472.434 224.555C464.98 241.215 454.699 255.907 441.59 268.633C428.739 281.128 413.574 291.656 396.096 300.217C378.618 308.778 360.112 315.835 340.578 321.388C321.044 326.71 300.996 330.528 280.434 332.842C259.871 335.155 239.823 336.312 220.289 336.312H193.687ZM193.687 46.1605V301.605C223.759 301.605 249.205 298.944 270.024 293.623C290.843 288.301 308.193 281.591 322.072 273.492C335.952 265.163 346.747 256.023 354.458 246.074C362.426 235.893 368.337 226.175 372.193 216.92C376.048 207.433 378.361 198.988 379.133 191.584C380.161 183.948 380.675 178.395 380.675 174.924C380.675 170.296 380.161 163.933 379.133 155.835C378.361 147.505 376.177 138.597 372.578 129.111C368.98 119.624 363.582 110.022 356.386 100.304C349.189 90.3543 339.165 81.4461 326.313 73.5792C313.462 65.4808 297.398 58.8865 278.12 53.7961C259.1 48.7057 235.968 46.1605 208.723 46.1605H193.687Z" fill="#0033A0"/>
</g>
<g style="mix-blend-mode:darken" filter="url(#filter1_di_4_4)">
<path d="M243.376 270.613C228.518 270.495 213.434 269.259 198.126 266.906L236.921 249.776L251.487 105.792L207.824 86.055C217.026 84.0821 226.364 82.5753 235.84 81.5345C245.316 80.4008 254.032 79.5865 261.988 79.0917C271.175 78.5136 280.122 78.2126 288.83 78.1888C295.266 78.2399 301.883 79.0364 308.681 80.5783C315.574 82.121 322.269 84.5456 328.765 87.8521C335.262 91.0656 341.371 95.206 347.092 100.273C352.812 105.341 357.766 111.378 361.952 118.386C366.232 125.395 369.602 133.466 372.062 142.6C374.524 151.64 375.695 161.833 375.576 173.177C375.445 185.731 373.483 196.875 369.69 206.61C365.897 216.345 360.745 224.813 354.233 232.015C347.817 239.218 340.323 245.343 331.752 250.39C323.182 255.344 314.007 259.316 304.227 262.307C294.447 265.299 284.344 267.451 273.919 268.763C263.589 270.076 253.408 270.692 243.376 270.613ZM342.556 167.475C342.606 162.732 342.28 157.661 341.58 152.262C340.973 146.863 339.846 141.507 338.198 136.193C336.55 130.879 334.332 125.793 331.543 120.935C328.755 115.984 325.251 111.632 321.032 107.878C316.906 104.126 311.969 101.11 306.219 98.8329C300.469 96.5553 293.809 95.3864 286.238 95.3263C282.263 95.2948 278.096 95.5407 273.736 96.0641L272.104 252.288C284.993 250.623 295.864 247.408 304.716 242.642C313.663 237.877 320.919 231.844 326.485 224.541C332.052 217.145 336.068 208.668 338.535 199.109C341.096 189.457 342.437 178.913 342.556 167.475Z" fill="#A04300"/>
<path d="M197.925 266.448L196.358 267.14L198.049 267.4C213.38 269.757 228.487 270.995 243.371 271.113C253.426 271.193 263.629 270.574 273.981 269.259C284.434 267.943 294.564 265.785 304.372 262.786C314.187 259.784 323.397 255.796 332.001 250.822L332.005 250.82C340.619 245.748 348.153 239.591 354.605 232.349C361.16 225.098 366.342 216.577 370.156 206.79C373.975 196.989 375.944 185.783 376.076 173.181C376.195 161.8 375.02 151.561 372.545 142.468C370.075 133.297 366.688 125.181 362.38 118.127C358.17 111.079 353.185 105.002 347.424 99.8987C341.673 94.8044 335.529 90.6392 328.991 87.4053C322.46 84.0811 315.727 81.6425 308.792 80.0905C301.962 78.5414 295.309 77.7402 288.835 77.6888L288.83 77.6888C280.112 77.7127 271.154 78.014 261.958 78.5926C253.992 79.0881 245.267 79.9033 235.784 81.0378C226.292 82.0804 216.938 83.5898 207.72 85.5662L206.233 85.8851L207.617 86.5107L250.954 106.1L236.453 249.437L197.925 266.448ZM341.083 152.319L341.084 152.327C341.782 157.707 342.106 162.755 342.056 167.471C341.937 178.873 340.601 189.376 338.051 198.982L338.05 198.985C335.6 208.484 331.611 216.9 326.087 224.239C320.57 231.478 313.372 237.467 304.482 242.201L304.48 242.202C295.825 246.862 285.206 250.038 272.61 251.717L274.232 96.5089C278.414 96.0232 282.414 95.796 286.232 95.8263C293.755 95.886 300.353 97.0473 306.034 99.2978C311.734 101.556 316.618 104.54 320.695 108.249L320.699 108.252C324.877 111.969 328.346 116.278 331.107 121.181L331.109 121.185C333.88 126.011 336.083 131.063 337.721 136.342C339.36 141.627 340.48 146.952 341.083 152.319Z" stroke="#A04300"/>
</g>
<defs>
<filter id="filter0_d_4_4" x="0" y="0" width="488" height="488" filterUnits="userSpaceOnUse" color-interpolation-filters="sRGB">
<feFlood flood-opacity="0" result="BackgroundImageFix"/>
<feColorMatrix in="SourceAlpha" type="matrix" values="0 0 0 0 0 0 0 0 0 0 0 0 0 0 0 0 0 0 127 0" result="hardAlpha"/>
<feOffset dy="4"/>
<feGaussianBlur stdDeviation="2"/>
<feComposite in2="hardAlpha" operator="out"/>
<feColorMatrix type="matrix" values="0 0 0 0 0 0 0 0 0 0 0 0 0 0 0 0 0 0 0.25 0"/>
<feBlend mode="normal" in2="BackgroundImageFix" result="effect1_dropShadow_4_4"/>
<feBlend mode="normal" in="SourceGraphic" in2="effect1_dropShadow_4_4" result="shape"/>
</filter>
<filter id="filter1_di_4_4" x="190.591" y="77.1888" width="189.994" height="202.431" filterUnits="userSpaceOnUse" color-interpolation-filters="sRGB">
<feFlood flood-opacity="0" result="BackgroundImageFix"/>
<feColorMatrix in="SourceAlpha" type="matrix" values="0 0 0 0 0 0 0 0 0 0 0 0 0 0 0 0 0 0 127 0" result="hardAlpha"/>
<feOffset dy="4"/>
<feGaussianBlur stdDeviation="2"/>
<feComposite in2="hardAlpha" operator="out"/>
<feColorMatrix type="matrix" values="0 0 0 0 0 0 0 0 0 0 0 0 0 0 0 0 0 0 0.25 0"/>
<feBlend mode="normal" in2="BackgroundImageFix" result="effect1_dropShadow_4_4"/>
<feBlend mode="normal" in="SourceGraphic" in2="effect1_dropShadow_4_4" result="shape"/>
<feColorMatrix in="SourceAlpha" type="matrix" values="0 0 0 0 0 0 0 0 0 0 0 0 0 0 0 0 0 0 127 0" result="hardAlpha"/>
<feOffset dy="4"/>
<feGaussianBlur stdDeviation="2"/>
<feComposite in2="hardAlpha" operator="arithmetic" k2="-1" k3="1"/>
<feColorMatrix type="matrix" values="0 0 0 0 0 0 0 0 0 0 0 0 0 0 0 0 0 0 0.25 0"/>
<feBlend mode="normal" in2="shape" result="effect2_innerShadow_4_4"/>
</filter>
</defs>
</svg>
